<svg width="54" height="46" viewBox="0 0 54 46" fill="none" xmlns="http://www.w3.org/2000/svg">
<path d="M33.4998 17.1938V24.5844H41.2615C42.6648 24.5844 43.7611 24.3056 44.638 23.7478C45.5151 23.1901 45.9098 22.2139 45.9098 20.8195C45.9098 19.2391 45.3397 18.2165 44.1996 17.7517C43.2349 17.3799 41.9631 17.1938 40.4283 17.1938H33.4998ZM33.4998 30.1159V39.0405H41.2615C42.6648 39.0405 43.7172 38.8544 44.5066 38.4361C45.9098 37.7389 46.6114 36.3444 46.6114 34.2528C46.6114 32.5329 45.9098 31.3245 44.5505 30.6736C43.805 30.3018 42.7525 30.1159 41.3492 30.1159H33.4998ZM42.5332 11.3836C46.3922 11.4767 49.1549 12.6387 50.7775 14.9628C51.7421 16.4037 52.2245 18.0771 52.2245 20.0757C52.2245 22.1209 51.7421 23.7478 50.7775 25.0028C50.2074 25.7001 49.418 26.3043 48.3655 26.9087C49.9881 27.5129 51.2159 28.489 52.0052 29.837C52.8384 31.1849 53.2331 32.8118 53.2331 34.7641C53.2331 36.7164 52.7946 38.529 51.8298 40.063C51.2159 41.1322 50.4705 42.0153 49.5934 42.7124C48.5848 43.5492 47.3569 44.1068 45.9975 44.3858C44.638 44.7112 43.1472 44.8506 41.5246 44.8506H27.2289V11.3836H42.5332Z" fill="#10CA00"/>
<path d="M25.4386 0.0544409C24.1406 0.207764 22.9132 0.872349 21.8414 1.32291C19.8952 2.14114 17.5895 2.93621 16.7588 4.40327C16.3016 5.21016 16.3792 6.16145 16.3792 7.00751C16.3792 7.61195 16.3729 8.21198 16.4397 8.81377C16.4673 9.06132 16.4243 9.4068 16.7384 9.59356C17.0286 9.76619 17.6715 9.73772 18.0445 9.7378C19.178 9.73813 20.3131 9.7764 21.4418 9.77977C24.7501 9.78991 28.0588 9.77985 31.3672 9.77985H34.498C34.9544 9.77985 35.5199 9.83662 35.9636 9.76651C36.7581 9.64093 36.7629 9.13545 36.7629 8.72975C36.7629 7.74944 36.6987 6.76638 36.6963 5.78944C36.6938 4.80173 36.253 3.84481 35.1526 3.10273C34.7927 2.86008 34.3188 2.67483 33.8985 2.47641C32.9903 2.04755 32.0444 1.64966 31.1007 1.25288C30.2417 0.891806 29.3342 0.439475 28.3695 0.199723C27.5377 -0.00706483 26.3157 -0.0491944 25.4386 0.0544409Z" fill="black"/>
<path d="M13.4797 17.8478C13.2107 19.0398 12.7203 22.5691 12.5733 22.6827C12.4407 22.7849 5.94289 23.158 5.49108 23.3517C5.17682 23.4863 0.633121 27.4472 0.246094 28.0696C-0.262984 28.8878 0.0520608 30.0271 0.875464 30.5688C1.41781 30.9256 2.11701 31.019 2.76901 30.9108C3.6076 30.7716 7.21954 27.4212 7.4438 27.2909C7.8665 27.0452 11.4868 26.9254 12.6513 26.8797C12.7622 27.682 12.8108 33.03 12.734 33.2016C12.6516 33.3857 8.16676 35.2236 6.85211 36.0035C5.90913 36.5628 3.75229 42.2675 3.56577 43.2127C3.24369 44.8455 5.28528 45.957 6.79291 45.2531C7.75621 44.8034 9.1194 40.0243 9.63128 39.3785C9.87642 39.0694 12.9469 37.8333 14.0123 37.3719C14.2557 37.9033 14.6218 38.3992 14.9562 38.8862C16.4048 40.996 18.4503 42.6042 20.8766 43.7128C22.2614 44.3457 23.7534 44.8353 25.3148 44.8353C25.3148 37.2072 25.4452 12.065 25.3551 11.7364C25.2917 11.5052 25.0351 11.2708 24.7822 11.2127C24.5268 11.1543 18.1235 11.1303 17.622 11.3234C17.1758 11.4951 16.8543 11.837 16.5523 12.1691C16.0298 12.7433 15.5132 13.369 15.1958 14.0619C14.6726 13.8073 10.1215 11.9345 9.96687 11.7756C9.74629 11.5488 7.73341 6.52129 7.306 6.13707C6.8961 5.76835 6.22713 5.63755 5.66855 5.62789C4.37143 5.60546 3.45317 6.66079 3.54362 7.78832C3.59288 8.40298 6.41669 14.6227 6.7399 14.9223C7.39237 15.5268 12.872 17.6958 13.4797 17.8478Z" fill="black"/>
</svg>
